<svg width="32" height="32" viewBox="0 0 32 32" fill="none" xmlns="http://www.w3.org/2000/svg">
<path d="M29.3333 12.8933C29.2491 12.6494 29.096 12.4352 28.8924 12.2766C28.6889 12.1181 28.4437 12.0219 28.1867 11.9999L20.6 10.8933L17.2 3.99995C17.0908 3.77452 16.9204 3.58441 16.7081 3.45138C16.4959 3.31836 16.2505 3.2478 16 3.2478C15.7495 3.2478 15.5041 3.31836 15.2919 3.45138C15.0797 3.58441 14.9092 3.77452 14.8 3.99995L11.4 10.8799L3.81334 11.9999C3.56657 12.035 3.33457 12.1386 3.14367 12.2988C2.95277 12.4591 2.81062 12.6696 2.73334 12.9066C2.6626 13.1382 2.65625 13.3846 2.71497 13.6195C2.7737 13.8544 2.89528 14.0689 3.06667 14.2399L8.57334 19.5733L7.24 27.1466C7.18617 27.3978 7.20607 27.6593 7.29732 27.8995C7.38856 28.1396 7.54725 28.3484 7.75431 28.5005C7.96137 28.6526 8.20796 28.7417 8.46444 28.7569C8.72092 28.7722 8.97635 28.7131 9.2 28.5866L16 25.0266L22.8 28.5866C22.9871 28.6922 23.1985 28.7473 23.4133 28.7466C23.6958 28.7476 23.9712 28.6589 24.2 28.4933C24.4069 28.3451 24.567 28.1408 24.6615 27.9046C24.756 27.6683 24.7809 27.4099 24.7333 27.1599L23.4 19.5866L28.9067 14.2533C29.0992 14.0902 29.2415 13.8758 29.317 13.6351C29.3925 13.3943 29.3982 13.1371 29.3333 12.8933ZM21.1333 18.2266C20.979 18.3765 20.8632 18.5615 20.7959 18.7658C20.7286 18.9701 20.7117 19.1877 20.7467 19.3999L21.7067 24.9999L16.6933 22.3333C16.4985 22.2369 16.284 22.1868 16.0667 22.1868C15.8493 22.1868 15.6348 22.2369 15.44 22.3333L10.4267 24.9999L11.3867 19.3999C11.4217 19.1877 11.4048 18.9701 11.3374 18.7658C11.2701 18.5615 11.1543 18.3765 11 18.2266L7 14.2266L12.6133 13.4133C12.8293 13.3832 13.0347 13.3007 13.2113 13.1728C13.388 13.045 13.5306 12.8757 13.6267 12.6799L16 7.59995L18.5067 12.6933C18.6027 12.8891 18.7453 13.0583 18.922 13.1862C19.0987 13.314 19.304 13.3966 19.52 13.4266L25.1333 14.2399L21.1333 18.2266Z" fill="black"/>
</svg>
